<svg width="57" height="57" viewBox="0 0 57 57" fill="none" xmlns="http://www.w3.org/2000/svg">
<path d="M18.24 42.75L28.5 32.49L38.76 42.75L42.75 38.76L32.49 28.5L42.75 18.24L38.76 14.25L28.5 24.51L18.24 14.25L14.25 18.24L24.51 28.5L14.25 38.76L18.24 42.75ZM28.5 57C24.5575 57 20.8525 56.2519 17.385 54.7556C13.9175 53.2594 10.9012 51.2288 8.33625 48.6637C5.77125 46.0988 3.74063 43.0825 2.24437 39.615C0.748125 36.1475 0 32.4425 0 28.5C0 24.5575 0.748125 20.8525 2.24437 17.385C3.74063 13.9175 5.77125 10.9012 8.33625 8.33625C10.9012 5.77125 13.9175 3.74063 17.385 2.24437C20.8525 0.748125 24.5575 0 28.5 0C32.4425 0 36.1475 0.748125 39.615 2.24437C43.0825 3.74063 46.0988 5.77125 48.6637 8.33625C51.2288 10.9012 53.2594 13.9175 54.7556 17.385C56.2519 20.8525 57 24.5575 57 28.5C57 32.4425 56.2519 36.1475 54.7556 39.615C53.2594 43.0825 51.2288 46.0988 48.6637 48.6637C46.0988 51.2288 43.0825 53.2594 39.615 54.7556C36.1475 56.2519 32.4425 57 28.5 57Z" fill="black"/>
</svg>
