<svg width="149" height="28" viewBox="0 0 149 28" fill="none" xmlns="http://www.w3.org/2000/svg">
<path d="M15.4854 1.728V6.66H6.16144V11.772H14.4054V16.524H6.16144V22.068H15.4854V27H0.0054376V1.728H15.4854ZM19.482 27V0.36H25.638V27H19.482ZM38.9552 11.556C36.9392 11.556 35.3912 12.78 35.0312 15.012H42.7352C42.7352 12.816 41.0072 11.556 38.9552 11.556ZM48.5672 20.34C47.5952 24.264 44.0312 27.288 39.0272 27.288C33.1232 27.288 28.8752 23.328 28.8752 16.956C28.8752 10.584 33.0512 6.624 39.0272 6.624C44.8952 6.624 49.0352 10.512 49.0352 16.632C49.0352 17.208 48.9992 17.82 48.9272 18.432H34.9952C35.2112 21.06 36.8312 22.284 38.8112 22.284C40.5392 22.284 41.5112 21.42 42.0152 20.34H48.5672ZM79.9668 27V16.092C79.9668 13.464 78.4548 12.024 76.1148 12.024C73.7748 12.024 72.2628 13.464 72.2628 16.092V27H66.1428V16.092C66.1428 13.464 64.6308 12.024 62.2908 12.024C59.9508 12.024 58.4388 13.464 58.4388 16.092V27H52.2828V6.912H58.4388V9.432C59.6268 7.812 61.6788 6.696 64.3068 6.696C67.3308 6.696 69.7788 8.028 71.1468 10.44C72.4788 8.316 74.9988 6.696 77.9148 6.696C82.8828 6.696 86.0868 9.864 86.0868 15.264V27H79.9668ZM99.2482 11.556C97.2322 11.556 95.6842 12.78 95.3242 15.012H103.028C103.028 12.816 101.3 11.556 99.2482 11.556ZM108.86 20.34C107.888 24.264 104.324 27.288 99.3202 27.288C93.4162 27.288 89.1682 23.328 89.1682 16.956C89.1682 10.584 93.3442 6.624 99.3202 6.624C105.188 6.624 109.328 10.512 109.328 16.632C109.328 17.208 109.292 17.82 109.22 18.432H95.2882C95.5042 21.06 97.1242 22.284 99.1042 22.284C100.832 22.284 101.804 21.42 102.308 20.34H108.86ZM126.436 27V16.092C126.436 13.356 124.924 11.844 122.584 11.844C120.244 11.844 118.732 13.356 118.732 16.092V27H112.576V6.912H118.732V9.576C119.956 7.884 122.116 6.696 124.816 6.696C129.46 6.696 132.556 9.864 132.556 15.264V27H126.436ZM137.806 20.016V12.024H135.358V6.912H137.806V2.016H143.962V6.912H147.994V12.024H143.962V20.088C143.962 21.276 144.466 21.78 145.834 21.78H148.03V27H144.898C140.722 27 137.806 25.236 137.806 20.016Z" fill="white"/>
</svg>
