<svg width="46" height="57" viewBox="0 0 46 57" fill="none" xmlns="http://www.w3.org/2000/svg">
<path d="M0 57V51.3H5.75V42.75C5.75 39.8525 6.43281 37.1331 7.79844 34.5919C9.16406 32.0506 11.0688 30.02 13.5125 28.5C11.0688 26.98 9.16406 24.9494 7.79844 22.4081C6.43281 19.8669 5.75 17.1475 5.75 14.25V5.7H0V0H46V5.7H40.25V14.25C40.25 17.1475 39.5672 19.8669 38.2016 22.4081C36.8359 24.9494 34.9313 26.98 32.4875 28.5C34.9313 30.02 36.8359 32.0506 38.2016 34.5919C39.5672 37.1331 40.25 39.8525 40.25 42.75V51.3H46V57H0Z" fill="black"/>
</svg>
