<svg width="64" height="65" viewBox="0 0 64 65" fill="none" xmlns="http://www.w3.org/2000/svg">
<path d="M34.24 39.1625L52.32 20.8L47.84 16.0875L34.24 29.9L27.36 23.075L22.88 27.625L34.24 39.1625ZM19.2 52C17.44 52 15.9333 51.3635 14.68 50.0906C13.4267 48.8177 12.8 47.2875 12.8 45.5V6.5C12.8 4.7125 13.4267 3.18229 14.68 1.90938C15.9333 0.636458 17.44 0 19.2 0H57.6C59.36 0 60.8667 0.636458 62.12 1.90938C63.3733 3.18229 64 4.7125 64 6.5V45.5C64 47.2875 63.3733 48.8177 62.12 50.0906C60.8667 51.3635 59.36 52 57.6 52H19.2ZM6.4 65C4.64 65 3.13333 64.3635 1.88 63.0906C0.626667 61.8177 0 60.2875 0 58.5V13H6.4V58.5H51.2V65H6.4Z" fill="black"/>
</svg>
