<svg width="59" height="60" viewBox="0 0 59 60" fill="none" xmlns="http://www.w3.org/2000/svg">
<path d="M16.3889 46.6667C17.3176 46.6667 18.0961 46.3472 18.7243 45.7083C19.3525 45.0694 19.6667 44.2778 19.6667 43.3333C19.6667 42.3889 19.3525 41.5972 18.7243 40.9583C18.0961 40.3194 17.3176 40 16.3889 40C15.4602 40 14.6817 40.3194 14.0535 40.9583C13.4252 41.5972 13.1111 42.3889 13.1111 43.3333C13.1111 44.2778 13.4252 45.0694 14.0535 45.7083C14.6817 46.3472 15.4602 46.6667 16.3889 46.6667ZM16.3889 33.3333C17.3176 33.3333 18.0961 33.0139 18.7243 32.375C19.3525 31.7361 19.6667 30.9444 19.6667 30C19.6667 29.0556 19.3525 28.2639 18.7243 27.625C18.0961 26.9861 17.3176 26.6667 16.3889 26.6667C15.4602 26.6667 14.6817 26.9861 14.0535 27.625C13.4252 28.2639 13.1111 29.0556 13.1111 30C13.1111 30.9444 13.4252 31.7361 14.0535 32.375C14.6817 33.0139 15.4602 33.3333 16.3889 33.3333ZM16.3889 20C17.3176 20 18.0961 19.6806 18.7243 19.0417C19.3525 18.4028 19.6667 17.6111 19.6667 16.6667C19.6667 15.7222 19.3525 14.9306 18.7243 14.2917C18.0961 13.6528 17.3176 13.3333 16.3889 13.3333C15.4602 13.3333 14.6817 13.6528 14.0535 14.2917C13.4252 14.9306 13.1111 15.7222 13.1111 16.6667C13.1111 17.6111 13.4252 18.4028 14.0535 19.0417C14.6817 19.6806 15.4602 20 16.3889 20ZM26.2222 46.6667H45.8889V40H26.2222V46.6667ZM26.2222 33.3333H45.8889V26.6667H26.2222V33.3333ZM26.2222 20H45.8889V13.3333H26.2222V20ZM6.55556 60C4.75278 60 3.20949 59.3472 1.92569 58.0417C0.641898 56.7361 0 55.1667 0 53.3333V6.66667C0 4.83333 0.641898 3.26389 1.92569 1.95833C3.20949 0.652778 4.75278 0 6.55556 0H52.4444C54.2472 0 55.7905 0.652778 57.0743 1.95833C58.3581 3.26389 59 4.83333 59 6.66667V53.3333C59 55.1667 58.3581 56.7361 57.0743 58.0417C55.7905 59.3472 54.2472 60 52.4444 60H6.55556Z" fill="white"/>
</svg>
