<svg width="46" height="56" viewBox="0 0 46 56" fill="none" xmlns="http://www.w3.org/2000/svg">
<path d="M0 47.6V42H5.75V22.4C5.75 18.5267 6.94792 15.085 9.34375 12.075C11.7396 9.065 14.8542 7.09333 18.6875 6.16V4.2C18.6875 3.03333 19.1068 2.04167 19.9453 1.225C20.7839 0.408333 21.8021 0 23 0C24.1979 0 25.2161 0.408333 26.0547 1.225C26.8932 2.04167 27.3125 3.03333 27.3125 4.2V6.16C31.1458 7.09333 34.2604 9.065 36.6562 12.075C39.0521 15.085 40.25 18.5267 40.25 22.4V42H46V47.6H0ZM23 56C21.4188 56 20.0651 55.4517 18.9391 54.355C17.813 53.2583 17.25 51.94 17.25 50.4H28.75C28.75 51.94 28.187 53.2583 27.0609 54.355C25.9349 55.4517 24.5812 56 23 56Z" fill="black"/>
</svg>
