<svg width="54" height="65" viewBox="0 0 54 65" fill="none" xmlns="http://www.w3.org/2000/svg">
<path d="M3.375 55.25C2.41875 55.25 1.61719 54.9385 0.970312 54.3156C0.323437 53.6927 0 52.9208 0 52C0 51.0792 0.323437 50.3073 0.970312 49.6844C1.61719 49.0615 2.41875 48.75 3.375 48.75H6.75V26C6.75 21.5042 8.15625 17.5094 10.9688 14.0156C13.7812 10.5219 17.4375 8.23333 21.9375 7.15V4.875C21.9375 3.52083 22.4297 2.36979 23.4141 1.42188C24.3984 0.473958 25.5938 0 27 0C28.4062 0 29.6016 0.473958 30.5859 1.42188C31.5703 2.36979 32.0625 3.52083 32.0625 4.875V7.15C36.5625 8.23333 40.2188 10.5219 43.0312 14.0156C45.8438 17.5094 47.25 21.5042 47.25 26V48.75H50.625C51.5812 48.75 52.3828 49.0615 53.0297 49.6844C53.6766 50.3073 54 51.0792 54 52C54 52.9208 53.6766 53.6927 53.0297 54.3156C52.3828 54.9385 51.5812 55.25 50.625 55.25H3.375ZM27 65C25.1437 65 23.5547 64.3635 22.2328 63.0906C20.9109 61.8177 20.25 60.2875 20.25 58.5H33.75C33.75 60.2875 33.0891 61.8177 31.7672 63.0906C30.4453 64.3635 28.8563 65 27 65ZM13.5 48.75H40.5V26C40.5 22.425 39.1781 19.3646 36.5344 16.8188C33.8906 14.2729 30.7125 13 27 13C23.2875 13 20.1094 14.2729 17.4656 16.8188C14.8219 19.3646 13.5 22.425 13.5 26V48.75Z" fill="white"/>
</svg>
