<svg width="58" height="59" viewBox="0 0 58 59" fill="none" xmlns="http://www.w3.org/2000/svg">
<path d="M29 29.5C25.0125 29.5 21.599 28.0557 18.7594 25.1672C15.9198 22.2786 14.5 18.8062 14.5 14.75C14.5 10.6937 15.9198 7.22135 18.7594 4.33281C21.599 1.44427 25.0125 0 29 0C32.9875 0 36.401 1.44427 39.2406 4.33281C42.0802 7.22135 43.5 10.6937 43.5 14.75C43.5 18.8062 42.0802 22.2786 39.2406 25.1672C36.401 28.0557 32.9875 29.5 29 29.5ZM0 59V48.675C0 46.5854 0.528646 44.6648 1.58594 42.9133C2.64323 41.1617 4.04792 39.825 5.8 38.9031C9.54583 36.9979 13.3521 35.569 17.2188 34.6164C21.0854 33.6638 25.0125 33.1875 29 33.1875C32.9875 33.1875 36.9146 33.6638 40.7812 34.6164C44.6479 35.569 48.4542 36.9979 52.2 38.9031C53.9521 39.825 55.3568 41.1617 56.4141 42.9133C57.4714 44.6648 58 46.5854 58 48.675V59H0Z" fill="black"/>
</svg>
