<svg width="64" height="65" viewBox="0 0 64 65" fill="none" xmlns="http://www.w3.org/2000/svg">
<path d="M27.1201 55.5587C19.5404 55.5587 13.1254 52.8698 7.87526 47.492C2.62509 42.1142 0 35.5433 0 27.7794C0 20.0154 2.62509 13.4445 7.87526 8.0667C13.1254 2.6889 19.5404 0 27.1201 0C34.6998 0 41.1147 2.6889 46.3649 8.0667C51.6151 13.4445 54.2402 20.0154 54.2402 27.7794C54.2402 30.9134 53.7534 33.8694 52.7799 36.6474C51.8063 39.4253 50.4851 41.8827 48.8162 44.0196L62.8526 57.8415C63.6175 58.625 64 59.6222 64 60.8331C64 62.044 63.6175 63.0412 62.8526 63.8247C62.0877 64.6082 61.1141 65 59.932 65C58.7498 65 57.7763 64.6082 57.0114 63.8247L42.9749 50.0028C40.8887 51.7123 38.4897 53.0657 35.7777 54.0629C33.0656 55.0601 30.1798 55.5587 27.1201 55.5587ZM27.1201 47.0112C32.3355 47.0112 36.7686 45.1415 40.4194 41.4019C44.0701 37.6624 45.8955 33.1215 45.8955 27.7794C45.8955 22.4372 44.0701 17.8963 40.4194 14.1568C36.7686 10.4173 32.3355 8.54749 27.1201 8.54749C21.9047 8.54749 17.4716 10.4173 13.8208 14.1568C10.17 17.8963 8.34464 22.4372 8.34464 27.7794C8.34464 33.1215 10.17 37.6624 13.8208 41.4019C17.4716 45.1415 21.9047 47.0112 27.1201 47.0112Z" fill="black"/>
</svg>
