<svg width="56" height="55" viewBox="0 0 56 55" fill="none" xmlns="http://www.w3.org/2000/svg">
<path d="M20.3383 55L19.2239 46.2C18.6202 45.9708 18.0514 45.6958 17.5174 45.375C16.9834 45.0542 16.461 44.7104 15.9502 44.3438L7.66169 47.7812L0 34.7188L7.17413 29.3563C7.1277 29.0354 7.10448 28.726 7.10448 28.4281V26.5719C7.10448 26.274 7.1277 25.9646 7.17413 25.6437L0 20.2812L7.66169 7.21875L15.9502 10.6562C16.461 10.2896 16.995 9.94583 17.5522 9.625C18.1095 9.30417 18.6667 9.02917 19.2239 8.8L20.3383 0H35.6617L36.7761 8.8C37.3798 9.02917 37.9486 9.30417 38.4826 9.625C39.0166 9.94583 39.539 10.2896 40.0498 10.6562L48.3383 7.21875L56 20.2812L48.8259 25.6437C48.8723 25.9646 48.8955 26.274 48.8955 26.5719V28.4281C48.8955 28.726 48.8491 29.0354 48.7562 29.3563L55.9304 34.7188L48.2687 47.7812L40.0498 44.3438C39.539 44.7104 39.005 45.0542 38.4478 45.375C37.8905 45.6958 37.3333 45.9708 36.7761 46.2L35.6617 55H20.3383ZM28.1393 37.125C30.8325 37.125 33.131 36.1854 35.0348 34.3063C36.9386 32.4271 37.8905 30.1583 37.8905 27.5C37.8905 24.8417 36.9386 22.5729 35.0348 20.6938C33.131 18.8146 30.8325 17.875 28.1393 17.875C25.3997 17.875 23.0896 18.8146 21.209 20.6938C19.3284 22.5729 18.3881 24.8417 18.3881 27.5C18.3881 30.1583 19.3284 32.4271 21.209 34.3063C23.0896 36.1854 25.3997 37.125 28.1393 37.125Z" fill="white"/>
</svg>
