<svg width="61" height="65" viewBox="0 0 61 65" fill="none" xmlns="http://www.w3.org/2000/svg">
<path d="M18.3706 65C16.7919 65 15.4495 64.4271 14.3435 63.2812C13.2375 62.1353 12.6846 60.7444 12.6846 59.1086C12.6846 57.4729 13.2375 56.082 14.3435 54.9361C15.4495 53.7902 16.7919 53.2173 18.3706 53.2173C19.9495 53.2173 21.2918 53.7902 22.3978 54.9361C23.5038 56.082 24.0568 57.4729 24.0568 59.1086C24.0568 60.7444 23.5038 62.1353 22.3978 63.2812C21.2918 64.4271 19.9495 65 18.3706 65ZM49.8633 65C48.2845 65 46.9421 64.4271 45.8361 63.2812C44.7301 62.1353 44.1771 60.7444 44.1771 59.1086C44.1771 57.4729 44.7301 56.082 45.8361 54.9361C46.9421 53.7902 48.2845 53.2173 49.8633 53.2173C51.442 53.2173 52.7844 53.7902 53.8904 54.9361C54.9964 56.082 55.5494 57.4729 55.5494 59.1086C55.5494 60.7444 54.9964 62.1353 53.8904 63.2812C52.7844 64.4271 51.442 65 49.8633 65ZM14.6715 11.7828L22.9071 29.6514H45.0581C45.2456 29.6514 45.4122 29.6029 45.558 29.5058C45.7039 29.4086 45.8288 29.2737 45.933 29.1011L54.6497 12.6892C54.7746 12.4518 54.7851 12.2414 54.6809 12.058C54.5768 11.8745 54.3997 11.7827 54.1498 11.7827L14.6715 11.7828ZM12.3345 6.73318H57.4489C58.7777 6.73318 59.7827 7.31907 60.4638 8.49085C61.1449 9.66269 61.1771 10.8593 60.5606 12.0808L50.1507 31.6194C49.6174 32.5906 48.9124 33.347 48.0355 33.8887C47.1586 34.4303 46.1974 34.7011 45.1519 34.7011H21.4449L17.6833 41.8227C17.5166 42.0817 17.5114 42.3623 17.6677 42.6644C17.8239 42.9665 18.0582 43.1176 18.3706 43.1176H55.5494V48.1673H18.3706C16.2045 48.1673 14.5768 47.1994 13.4874 45.2637C12.3981 43.3279 12.3596 41.3954 13.3719 39.4662L18.0084 30.8296L6.18607 5.04965H0V0H9.24775L12.3345 6.73318Z" fill="black"/>
</svg>
